<svg version="1.1" id="Layer_1" xmlns:x="ns_extend;" xmlns:i="ns_ai;" xmlns:graph="ns_graphs;" xmlns="http://www.w3.org/2000/svg" xmlns:xlink="http://www.w3.org/1999/xlink" x="0px" y="0px" viewBox="0 0 208.6 58" style="enable-background:new 0 0 208.6 58;" xml:space="preserve">
 <metadata>
  <sfw xmlns="ns_sfw;">
   <slices>
   </slices>
   <sliceSourceBounds bottomLeftOrigin="true" height="58" width="208.6" x="191.5" y="-255.6">
   </sliceSourceBounds>
  </sfw>
 </metadata>
 <g>
  <path d="M44.1,0c-1.8,0-3.8,0.2-5.9,0.7c0,0-11.1,2.7-23.3,14.1c0,0-5.8,5.9-10,13.5c0,0-4.3,8-4.9,14.5c0,0-0.6,7.5,3.6,11.3
		c0,0,4.8,4.4,15.5,3.6c0,0,6.6-0.9,13.9-5.3c0,0,3.4-2.2,5.8-4.4c0,0-1.1,3.8,0.5,6.5c0,0,1.5,2.6,4.8,3.2c0,0,2.5,0.5,5.9-0.9
		c0,0,2.2-1,3.7-1.7c0,0,2.9-1.6,5.9-3.9c0,0-0.6,2.2,0.7,4.2c0,0,1.6,2.2,4.4,2.5c0,0,7.6,0.6,18.2-12.4l-7.5,11.9l6.8-0.1L88,47.1
		c0,0,6.1-10.6,7.5-11.8c0,0,3.2-4.2,8-5.2l3.2,0.2c0,0,1.4,0.6,1.4,2.1l-2.3-0.4c0,0-1.4,0.1-2.1,1.6c0,0-0.6,1.4-0.4,2.7
		c0,0,0.4,1.1,1.5,1.6l0.7,0.2l2.3-0.4c0,0,4.2-1.6,9.8-8.6l-1.4,2.3l-4.8,8.1l-5.5,9.8c0,0-1.6,3.2-0.9,5.2c0,0,0.7,1.8,3.2,2.3
		l5.3-0.4c0,0,2.9-0.9,5.4-2.9l3.4-2.8c0,0,4.2-3.6,8-7.7l-0.2,0.4c0,0-3.3,6-3.9,8.1c0,0-1.4,4.3,1.7,6l3.4,0.4
		c0,0,2.8-0.4,5.7-2.5l4.7-3.9c0,0,3.9-3.7,6-6.4c0,0-1.1,2.5-1.4,4.2c0,0-0.9,5.7,4.4,8l4.9,0.4c0,0,2-0.1,4.9-1.2
		c0,0,7-2.2,16.7-11.3c0,0,4.9-4.5,8.4-8.6l-12.3,20.6h6l4.5-7.6l5.8-9.5c0,0,3.3-5.3,9.3-8.6c0,0,2.5-1.5,4.3-1.7
		c0,0,2-0.4,2.3,0.6c0,0-2.7-0.6-3.4,2.2c0,0-0.6,2.8,1.6,3.7c0,0,1.7,0.6,3.1-0.4c0,0,1.2-0.9,1.6-2.6c0,0,0.4-1.7-0.5-2.9
		c0,0-1-1.5-3.2-1.6c0,0-2.5-0.1-7.5,3.2c0,0-3.7,2.5-5.3,3.9l4.2-7h-6.1c0,0-5.8,9.8-16.1,18.3c0,0-10.1,8.1-15.7,8.4
		c0,0-5.5,0.4-6-3.8c0,0-0.4-2.5,1.1-6c0,0,3.4,0.4,8-1.1c0,0,4.3-1.4,7.9-3.8c0,0,3.8-2.6,5.2-5.3c0,0,1.6-3.1-0.2-5.7
		c0,0-3.4-3.3-10.8-0.2c0,0-7.6,3.2-13.3,10.7l-1.5,2.2l-0.1,0.2l-4.1,4.7l-4.2,4.2c0,0-5,4.9-7.5,3.4c0,0-1-0.6-1-2.2
		c0,0,0-1.6,1.1-3.4l11.7-20.4h-5.3c0,0-2.9,4.8-6.3,9.3c0,0-6.6,8.8-13.9,13.9c0,0-4.9,3.8-7.7,2.5c0,0-1.2-0.6-1.1-2.1
		c0,0,0.1-1.7,1.7-4.1l11.4-19.5l6.4-0.1l0.9-0.9h-6.5L131,16l-5.8,0.1c0,0-4.1,6.9-7.1,11.1c0,0-5.7,7.5-10.3,9.5
		c0,0,0.9-1.1,0.9-2.7l-0.1-1.4c0,0-0.4-1.7-2-2.5l-1.5-0.4l-2.7,0.2c0,0-3.2,0.7-6.3,3.3l2.5-4.2h-5.8c0,0-5.3,9.3-12.2,17.4
		c0,0-9,10.3-13.9,9.1c0,0-1.5-0.7-1.6-2.5c0,0,0-1.7,1.6-4.3l11.7-19.8l-5.8,0.1l-1.8,3.2l-1.2,2.3c0,0,0.2-0.7,0-2.2
		c0,0-0.5-3.7-3.9-4.4l-2.7-0.2c0,0-7-0.1-14.9,6.9c0,0-5.4,4.8-9.6,12.2c0,0-8.2,7.7-17,9.3c0,0-7.7,1.6-11.1-1.8
		c0,0-3.7-3.7-3.7-10.2c0,0,0.1-7.7,5.5-18.1c0,0,5.8-8.6,9.3-12.4c0,0,9.1-10,18.4-12.4c0,0,7.7-2,11.9,1.5c0,0,3.7,2.9,3.9,9.1
		L58,8.4c0,0,2.7-4.2,5-6.6c0,0-2.2,1-4.8,1.4c0,0-3.3,0.4-4.9-0.6C53.6,2.3,50,0.1,44.1,0L44.1,0z M63.9,28.6
		c2.3,0,3.6,1.1,3.6,1.1c2.8,2.6,0.6,7.5,0.6,7.5c-4.4,9.1-10.8,14.5-10.8,14.5l-3.9,2.7c-6,2.9-8.6,0.9-8.6,0.9
		c-2.1-1.7-1.2-5.8-1.2-5.8c0.6-2.7,2.8-6.8,2.8-6.8l4.4-6.4c3.9-4.4,8.5-6.6,8.5-6.6C61.1,28.9,62.7,28.6,63.9,28.6z M168,29.4h0.2
		c0,0,1.4,0.1,1.8,0.9c0,0,0.6,0.9,0.4,2.5c0,0-0.4,4.3-5.2,8.4c0,0-5.4,4.7-11.7,4.4l1.2-2.5c0,0,2.7-5.3,6.8-9.5
		C161.6,33.4,165.4,29.4,168,29.4z">
  </path>
  <path d="M143.4,20.3c0,0,0,1.1,0.9,1.8c0,0,0.7,0.7,1.8,0.7c0,0,1.1,0,1.7-0.7c0,0,0.7-0.9,0.7-1.8l-0.7-1.8c0,0-0.9-0.7-1.7-0.7
		c0,0-1.1,0-1.8,0.7C144.2,18.4,143.4,19.2,143.4,20.3">
  </path>
 </g>
</svg>